<?xml version="1.0" encoding="UTF-8"?>
<!DOCTYPE svg PUBLIC "-//W3C//DTD SVG 1.1//EN" "http://www.w3.org/Graphics/SVG/1.1/DTD/svg11.dtd">
<svg xmlns="http://www.w3.org/2000/svg" version="1.1" width="180px" height="40px" style="shape-rendering:geometricPrecision; text-rendering:geometricPrecision; image-rendering:optimizeQuality; fill-rule:evenodd; clip-rule:evenodd" xmlns:xlink="http://www.w3.org/1999/xlink">
<g><path style="opacity:1" fill="#fbfbfb" d="M -0.5,-0.5 C 59.5,-0.5 119.5,-0.5 179.5,-0.5C 179.5,12.8333 179.5,26.1667 179.5,39.5C 119.5,39.5 59.5,39.5 -0.5,39.5C -0.5,26.1667 -0.5,12.8333 -0.5,-0.5 Z"/></g>
<g><path style="opacity:1" fill="#272324" d="M 1.5,4.5 C 17.1667,4.5 32.8333,4.5 48.5,4.5C 48.5,14.5 48.5,24.5 48.5,34.5C 32.8333,34.5 17.1667,34.5 1.5,34.5C 1.5,24.5 1.5,14.5 1.5,4.5 Z"/></g>
<g><path style="opacity:1" fill="#3f3c3d" d="M 27.5,18.5 C 26.5284,16.5069 25.1951,16.1736 23.5,17.5C 19.455,15.4107 16.1217,12.2441 13.5,8C 15.1667,7.33333 16.8333,7.33333 18.5,8C 20.4945,10.8274 22.8278,13.3274 25.5,15.5C 27.953,12.2069 30.7863,9.54024 34,7.5C 34.8333,7.83333 35.6667,8.16667 36.5,8.5C 34.1245,12.5348 31.1245,15.8681 27.5,18.5 Z"/></g>
<g><path style="opacity:1" fill="#141414" d="M 54.5,13.5 C 55.8333,13.5 57.1667,13.5 58.5,13.5C 58.9927,16.8121 59.9927,19.9788 61.5,23C 61.1667,23.5 60.8333,24 60.5,24.5C 57.816,21.9608 55.1493,21.9608 52.5,24.5C 52.1667,24 51.8333,23.5 51.5,23C 52.6072,19.8462 53.6072,16.6795 54.5,13.5 Z"/></g>
<g><path style="opacity:1" fill="#1f1f1f" d="M 65.5,12.5 C 68.2776,12.0217 70.2776,13.0217 71.5,15.5C 69.674,15.9202 67.674,15.9202 65.5,15.5C 65.3379,17.5273 65.5045,19.5273 66,21.5C 67.6804,22.6034 69.1804,22.2701 70.5,20.5C 71.9464,23.4061 70.9464,24.7394 67.5,24.5C 65.626,24.6102 64.126,23.9436 63,22.5C 61.8613,18.5789 62.6946,15.2456 65.5,12.5 Z"/></g>
<g><path style="opacity:1" fill="#212121" d="M 76.5,12.5 C 82.7948,12.9836 84.9615,16.3169 83,22.5C 75.4784,26.3249 72.4784,23.9916 74,15.5C 75.045,14.6266 75.8783,13.6266 76.5,12.5 Z"/></g>
<g><path style="opacity:1" fill="#181818" d="M 85.5,13.5 C 88.4475,13.2229 91.2809,13.5562 94,14.5C 94.7562,16.8087 94.2562,18.8087 92.5,20.5C 93.1667,21.5 93.8333,22.5 94.5,23.5C 91.5067,24.7144 89.84,23.5477 89.5,20C 90.7073,18.6998 91.3739,17.1998 91.5,15.5C 90.5,15.5 89.5,15.5 88.5,15.5C 88.5,18.5 88.5,21.5 88.5,24.5C 87.5,24.5 86.5,24.5 85.5,24.5C 85.5,20.8333 85.5,17.1667 85.5,13.5 Z"/></g>
<g><path style="opacity:1" fill="#1e1e1e" d="M 96.5,13.5 C 99.4475,13.2229 102.281,13.5562 105,14.5C 106.328,19.3376 104.494,21.671 99.5,21.5C 99.5,22.5 99.5,23.5 99.5,24.5C 98.5,24.5 97.5,24.5 96.5,24.5C 96.5,20.8333 96.5,17.1667 96.5,13.5 Z"/></g>
<g><path style="opacity:1" fill="#171717" d="M 110.5,12.5 C 112.582,12.472 114.416,13.1387 116,14.5C 117.004,17.9926 116.504,21.1592 114.5,24C 111.975,24.8959 109.808,24.3959 108,22.5C 107.333,19.8333 107.333,17.1667 108,14.5C 108.995,13.9341 109.828,13.2674 110.5,12.5 Z"/></g>
<g><path style="opacity:1" fill="#0c0c0c" d="M 119.5,13.5 C 122.685,13.0196 125.519,13.6863 128,15.5C 128.529,17.5847 128.029,19.418 126.5,21C 126.759,22.2613 127.426,23.2613 128.5,24C 125.647,24.6586 123.98,23.492 123.5,20.5C 124.547,18.9436 125.214,17.2769 125.5,15.5C 124.167,15.5 122.833,15.5 121.5,15.5C 121.817,18.5719 121.484,21.5719 120.5,24.5C 119.511,20.8927 119.177,17.226 119.5,13.5 Z"/></g>
<g><path style="opacity:1" fill="#151515" d="M 133.5,13.5 C 134.822,13.33 135.989,13.6634 137,14.5C 137.873,17.6181 139.039,20.6181 140.5,23.5C 140,23.8333 139.5,24.1667 139,24.5C 136.333,21.8333 133.667,21.8333 131,24.5C 130.5,24.1667 130,23.8333 129.5,23.5C 131.037,20.2175 132.37,16.8842 133.5,13.5 Z"/></g>
<g><path style="opacity:1" fill="#080808" d="M 141.5,13.5 C 144.572,13.1826 147.572,13.5159 150.5,14.5C 149.311,15.4287 147.978,15.762 146.5,15.5C 145.833,27.5 145.167,27.5 144.5,15.5C 142.821,15.7148 141.821,15.0481 141.5,13.5 Z"/></g>
<g><path style="opacity:1" fill="#111111" d="M 151.5,13.5 C 154.572,13.1826 157.572,13.5159 160.5,14.5C 158.5,15.1667 156.5,15.8333 154.5,16.5C 161.049,18.0929 161.049,19.0929 154.5,19.5C 154.5,20.5 154.5,21.5 154.5,22.5C 156.604,22.2011 158.604,22.5344 160.5,23.5C 157.572,24.4841 154.572,24.8174 151.5,24.5C 151.5,20.8333 151.5,17.1667 151.5,13.5 Z"/></g>
<g><path style="opacity:1" fill="#181818" d="M 162.5,13.5 C 164.044,13.7031 165.378,14.3698 166.5,15.5C 167.623,13.711 168.956,13.3776 170.5,14.5C 167.713,17.9788 168.046,21.1454 171.5,24C 169.094,24.7789 167.427,23.9456 166.5,21.5C 165.573,23.9456 163.906,24.7789 161.5,24C 162.516,22.3232 163.516,20.6565 164.5,19C 163.68,17.1997 163.014,15.3664 162.5,13.5 Z"/></g>
<g><path style="opacity:1" fill="#efefef" d="M 76.5,15.5 C 77.8333,15.5 79.1667,15.5 80.5,15.5C 80.6621,17.5273 80.4955,19.5273 80,21.5C 79,22.8333 78,22.8333 77,21.5C 76.5045,19.5273 76.3379,17.5273 76.5,15.5 Z"/></g>
<g><path style="opacity:1" fill="#e0e0e0" d="M 110.5,15.5 C 114.473,16.0755 115.473,18.2421 113.5,22C 112.552,22.4828 111.552,22.6495 110.5,22.5C 110.5,20.1667 110.5,17.8333 110.5,15.5 Z"/></g>
<g><path style="opacity:1" fill="#ededed" d="M 27.5,18.5 C 30.8093,22.8147 34.1426,27.148 37.5,31.5C 35.5787,32.641 33.5787,32.8077 31.5,32C 29.7068,29.2047 27.5402,26.7047 25,24.5C 23.1581,26.8636 21.3247,29.1969 19.5,31.5C 17.2646,31.7947 15.2646,31.4614 13.5,30.5C 16.8333,26.1667 20.1667,21.8333 23.5,17.5C 25.1951,16.1736 26.5284,16.5069 27.5,18.5 Z"/></g>
<g><path style="opacity:1" fill="#dfdfdf" d="M 99.5,15.5 C 101.346,15.2222 102.68,15.8888 103.5,17.5C 102.311,18.4287 100.978,18.762 99.5,18.5C 99.5,17.5 99.5,16.5 99.5,15.5 Z"/></g>
<g><path style="opacity:1" fill="#c0c0c0" d="M 55.5,17.5 C 57.332,18.1405 57.6653,19.1405 56.5,20.5C 55.6143,19.675 55.281,18.675 55.5,17.5 Z"/></g>
<g><path style="opacity:1" fill="#999999" d="M 134.5,17.5 C 136.625,18.3676 136.791,19.3676 135,20.5C 133.317,19.8235 133.15,18.8235 134.5,17.5 Z"/></g>
<g><path style="opacity:1" fill="#888687" d="M 13.5,30.5 C 15.2646,31.4614 17.2646,31.7947 19.5,31.5C 17.3066,32.7969 14.9732,32.7969 12.5,31.5C 12.6236,30.8933 12.9569,30.56 13.5,30.5 Z"/></g>
</svg>
